<?xml version="1.0" standalone="no"?>
<!DOCTYPE svg PUBLIC "-//W3C//DTD SVG 20010904//EN"
 "http://www.w3.org/TR/2001/REC-SVG-20010904/DTD/svg10.dtd">
<svg version="1.0" xmlns="http://www.w3.org/2000/svg"
 width="1024.000000pt" height="1024.000000pt" viewBox="0 0 1024.000000 1024.000000"
 preserveAspectRatio="xMidYMid meet">

<g transform="translate(0.000000,1024.000000) scale(0.100000,-0.100000)"
fill="#000000" stroke="none">
<path fill="#A2A2FF" d="M2943 7899 c-85 -27 -178 -99 -220 -169 -68 -116 -63 82 -63 -2617 0
-1770 3 -2457 11 -2495 32 -149 150 -275 294 -313 53 -13 293 -15 2137 -15
1482 0 2092 3 2130 11 160 34 287 165 318 329 13 71 14 3667 0 3739 -25 131
-2 105 -704 808 -517 519 -662 658 -706 682 -121 64 -27 61 -1655 60 -1445 0
-1481 -1 -1542 -20z m2849 -791 c3 -499 3 -503 26 -558 49 -116 148 -213 270
-262 57 -23 59 -23 610 -26 l552 -3 0 -1782 c0 -1750 0 -1783 -20 -1814 -41
-68 135 -63 -2122 -63 -2031 0 -2043 0 -2076 20 -67 41 -62 -152 -62 2485 0
2637 -5 2444 62 2485 33 20 47 20 1395 20 l1362 0 3 -502z m821 -546 c-387 -2
-419 -1 -452 16 -44 23 -70 57 -81 108 -5 21 -10 219 -10 439 l0 400 480 -480
480 -480 -417 -3z"/>
<path fill="#90FF90" d="M3526 7080 c-41 -13 -85 -58 -97 -100 -22 -72 25 -157 99 -178 15 -4
383 -7 819 -7 784 0 792 0 819 21 50 37 69 72 69 124 0 52 -19 87 -69 124 -27
21 -37 21 -819 23 -442 1 -805 -2 -821 -7z"/>
<path fill="#90FF90" d="M3525 6495 c-51 -18 -92 -63 -101 -111 -10 -53 21 -122 66 -149 34
-20 47 -20 835 -20 782 0 801 0 834 20 96 57 91 191 -10 250 -33 19 -54 20
-809 22 -651 2 -781 0 -815 -12z"/>
<path fill="#FF90B9" d="M5153 5840 c-13 -5 -32 -24 -43 -42 -19 -32 -20 -50 -20 -648 0 -597
1 -616 20 -648 11 -18 32 -37 46 -42 40 -16 1213 -13 1244 3 44 22 61 72 54
157 -38 494 -309 904 -726 1100 -206 96 -488 155 -575 120z m327 -292 c257
-82 480 -280 602 -534 41 -87 59 -141 92 -276 l6 -28 -415 0 -415 0 0 436 0
436 33 -7 c17 -3 61 -16 97 -27z"/>
<path fill="#3498DB" d="M4705 5774 c-276 -40 -513 -142 -732 -319 -361 -290 -557 -739 -522
-1198 29 -391 166 -694 433 -963 223 -223 473 -355 777 -410 126 -22 371 -23
499 0 461 81 836 358 1043 771 76 153 137 382 137 518 0 42 -5 54 -34 83 l-34
34 -626 0 c-691 0 -677 -1 -716 62 -19 32 -20 49 -20 695 l0 663 -29 32 c-25
28 -35 32 -87 34 -32 1 -72 0 -89 -2z m-65 -818 c0 -312 4 -575 10 -604 26
-140 127 -248 273 -294 54 -16 104 -18 603 -18 l544 0 -6 -27 c-86 -373 -369
-689 -744 -830 -232 -88 -538 -95 -775 -18 -379 124 -701 470 -800 861 -107
420 -8 820 278 1121 149 156 329 273 516 334 48 16 89 28 94 29 4 0 7 -249 7
-554z"/>
</g>
</svg>
