<?xml version="1.0" standalone="no"?>
<!DOCTYPE svg PUBLIC "-//W3C//DTD SVG 20010904//EN"
 "http://www.w3.org/TR/2001/REC-SVG-20010904/DTD/svg10.dtd">
<svg version="1.0" xmlns="http://www.w3.org/2000/svg"
 width="160.000000pt" height="160.000000pt" viewBox="0 0 160.000000 166.000000"
 preserveAspectRatio="xMidYMid meet">

<g transform="translate(-13.000000,175.000000) scale(0.113000,-0.113000)"
fill="#14B8A6" stroke="none">
<path d="M953 1530 c-22 -9 -53 -57 -53 -83 0 -7 -16 -19 -36 -25 -31 -9 -39
-8 -71 14 -62 42 -132 23 -153 -41 -14 -41 -60 -71 -68 -45 -3 8 -18 27 -33
42 -34 35 -93 38 -132 8 -26 -20 -50 -76 -45 -101 2 -8 -15 -23 -39 -34 -59
-29 -92 -63 -104 -109 -6 -23 -25 -71 -41 -109 -83 -189 -70 -421 34 -607 17
-30 72 -96 122 -145 145 -144 278 -199 486 -200 132 0 215 21 335 83 86 46
205 162 258 252 160 276 104 647 -132 867 -18 18 -46 56 -60 85 -22 43 -36 57
-77 78 -28 14 -65 37 -83 53 -33 28 -68 33 -108 17z m67 -104 c10 -32 13 -34
50 -29 31 4 43 1 62 -19 26 -25 65 -155 51 -168 -15 -14 -826 -251 -847 -248
-17 2 -24 17 -38 78 -22 91 -12 125 38 146 48 20 51 19 66 -28 15 -49 50 -73
80 -57 30 16 33 38 10 69 -11 15 -28 56 -37 90 -14 55 -15 65 -2 78 22 21 37
6 37 -37 0 -56 12 -62 86 -41 l65 19 11 -27 c5 -15 14 -37 19 -50 11 -27 31
-36 63 -28 37 9 42 41 13 75 -24 29 -43 103 -32 122 11 17 26 9 36 -21 12 -34
24 -36 93 -15 68 21 71 20 84 -24 15 -48 33 -63 69 -59 23 2 29 8 31 36 2 21
-2 34 -12 38 -16 6 -41 96 -32 119 9 25 24 17 36 -19z m328 -359 c49 -129 35
-290 -38 -442 -160 -335 -547 -488 -848 -336 -59 30 -110 74 -67 57 136 -52
172 -59 280 -59 94 0 122 4 194 28 196 67 353 224 422 425 30 88 38 268 15
356 -9 34 -16 68 -16 75 0 22 34 -40 58 -104z m-154 -124 c39 -160 39 -163 23
-205 -10 -24 -33 -69 -53 -101 l-35 -57 -102 -32 c-91 -30 -114 -33 -217 -32
-95 0 -125 4 -173 23 -31 12 -61 30 -66 39 -14 27 -95 332 -89 337 12 12 625
193 648 192 23 -2 27 -10 64 -164z m-934 -65 c52 -172 164 -310 306 -379 44
-21 63 -34 51 -37 -44 -9 -152 43 -220 106 -64 61 -102 117 -131 194 -21 57
-44 188 -32 188 2 0 14 -33 26 -72z m156 -45 c9 -32 22 -79 29 -105 8 -27 10
-48 5 -48 -12 0 -64 77 -84 124 -25 61 -20 83 21 85 7 1 20 -25 29 -56z m1009
-175 c-4 -18 -16 -57 -26 -87 -62 -181 -241 -341 -428 -385 -66 -16 -84 -5
-23 14 188 61 360 225 440 422 29 71 48 90 37 36z m-1117 -107 c70 -72 143
-116 241 -145 75 -22 208 -20 301 4 41 10 76 17 78 15 8 -8 -80 -46 -140 -60
-160 -38 -335 6 -449 112 -71 66 -127 143 -103 143 3 0 36 -31 72 -69z"/>
<path d="M957 869 c-54 -65 -102 -119 -107 -119 -4 0 -40 25 -78 55 -39 30
-73 55 -75 55 -3 0 -24 -22 -46 -49 l-42 -49 83 -65 c46 -35 95 -72 109 -81
l26 -17 147 170 c80 93 146 172 146 176 0 10 -43 44 -55 44 -5 0 -54 -54 -108
-120z"/>
</g>
</svg>
